<svg xmlns="http://www.w3.org/2000/svg" viewBox="0 0 256 256" role="img" aria-label="Logo da pizzaria">
  <rect width="256" height="256" fill="#d52d22"/>
  <path d="M91 77c-9-10-11-19-5-27 10 6 14 16 10 31l-5-4zm27-5c-5-13-2-23 8-31 7 12 5 23-6 34l-2-3zm29 0c-1-13 4-23 17-29 3 14-2 24-16 32l-1-3z" fill="#fff"/>
  <path d="M71 94c22-12 52-19 83-16 27 3 43 16 43 36 0 23-20 36-49 36h-18v-23h18c16 0 24-4 24-13 0-8-8-13-24-14-24-2-51 4-77 18V94z" fill="#fff"/>
  <path d="M98 99h29v67c0 13 11 22 25 22 18 0 30-13 30-27 0-10-6-18-16-18-8 0-14 5-14 12 0 5 4 9 9 9 3 0 6-1 8-4 0 12-10 20-23 20-15 0-27-11-27-26 0-18 16-33 37-33 26 0 46 18 46 42 0 31-25 55-58 55-28 0-46-19-46-47V99z" fill="#fff"/>
</svg>
